<svg width="24" height="24" viewBox="0 0 24 24" fill="none" xmlns="http://www.w3.org/2000/svg">
<g clip-path="url(#clip0_63_302)">
<path d="M6.72697 24.0001C6.72697 23.4451 6.68297 22.9801 6.74697 22.5311C6.77397 22.3401 6.99697 22.1351 7.17997 22.0201C8.06697 21.4571 9.02997 21.0071 9.85697 20.3611C12.533 18.2691 14.119 15.5151 14.206 11.9371C14.23 10.9221 13.856 10.6671 13.004 11.0641C10.541 12.2061 7.89197 11.5361 6.47897 9.41408C4.93797 7.09808 5.15497 4.01408 7.00197 1.99208C9.35997 -0.58992 13.242 -0.66792 15.919 1.80008C17.522 3.27808 18.284 5.18608 18.474 7.35708C19.111 14.6281 15.464 20.6221 8.82497 23.2551C8.16797 23.5151 7.49497 23.7291 6.72697 24.0001Z" fill="#F9FAFB"/>
</g>
<defs>
<clipPath id="clip0_63_302">
<rect width="24" height="24" fill="white"/>
</clipPath>
</defs>
</svg>
